<svg xmlns="http://www.w3.org/2000/svg" viewBox="0 0 48 48"><defs><linearGradient gradientUnits="userSpaceOnUse" y2="517.8" x2="0" y1="545.8"><stop stop-color="#3889e9"/><stop offset="1" stop-color="#5ea5fb"/></linearGradient><linearGradient y2="518.14" x2="0" y1="545.14" gradientUnits="userSpaceOnUse" id="0"><stop stop-color="#7e19bf"/><stop offset="1" stop-color="#bd30fa"/></linearGradient></defs><g transform="matrix(.99999 0 0 .99999-38.37 25.882)" enable-background="new"><g transform="matrix(1.71429 0 0 1.71429-624.32-913.53)"><circle cx="400.57" cy="531.8" r="14" fill="url(#0)"/><circle r="14" cy="531.8" cx="400.57" fill="#5ea5fb" fill-opacity="0"/></g><path d="m63.4-14.735c13.647 2.283 7.325 4.179-3.313 2.116-2.748-.533-4.153-.157-4.626.489-2.092 2.854 5.16 7.734 8.532 9.729-16.374-4.081-23.852 7.108-2.622 11.713 1.816.394 5.3.535 5.291 1.058-.001.562-8.951.609-13.672.753 3.22.861 10.962 1.447 15.996.97 4.893-.463 7.03-2.124.859-3.642-3.185-.783-15.667-3.15-14.352-5.672 1.921-3.683 10.223-2.796 15.06-3.299-11.892-8.174-14.59-10.1 1.548-7.996 4.222.937 5.632-6.205-1.45-6.487-1.56-.062-4.89.132-7.247.268" fill="#fff" fill-opacity=".855"/></g></svg>