<?xml version="1.0" encoding="iso-8859-1"?>
<!-- Generator: Adobe Illustrator 19.0.0, SVG Export Plug-In . SVG Version: 6.00 Build 0)  -->
<svg version="1.1" id="Layer_1" xmlns="http://www.w3.org/2000/svg" xmlns:xlink="http://www.w3.org/1999/xlink" x="0px" y="0px"
	 viewBox="0 0 496.8 496.8" style="enable-background:new 0 0 496.8 496.8;" xml:space="preserve">
<path style="fill:#363F3E;" d="M424.4,473.6c0,12-9.6,22.4-21.6,22.4H94c-12,0-21.6-10.4-21.6-22.4V22.4C72.4,10.4,82,0,94,0h308.8
	c12,0,21.6,10.4,21.6,22.4V473.6z"/>
<g>
	<path style="fill:#151918;" d="M299.6,308c1.6,0,2.4-0.8,3.2-1.6c3.2-3.2,3.2-8,0-12L290,281.6c-3.2-3.2-8.8-3.2-12,0
		c-0.8,0.8-1.6,2.4-1.6,3.2c-32,16.8-160,132-168,140.8l-12,12c-8.8,8.8-8.8,24,0,32.8L114,488c8.8,8.8,24,8.8,32.8,0l12-12
		C167.6,468,282.8,340,299.6,308z"/>
	<path style="fill:#151918;" d="M72.4,21.6C72.4,9.6,82,0,94,0h308.8c12,0,21.6,10.4,21.6,22.4v452c0,12-9.6,22.4-21.6,22.4"/>
	<circle style="fill:#151918;" cx="248.4" cy="246.4" r="135.2"/>
</g>
<circle style="fill:#1BCEB8;" cx="248.4" cy="223.2" r="135.2"/>
<g>
	<path style="fill:#0DBFBA;" d="M290,281.6c-3.2-3.2-8.8-3.2-12,0c-0.8,0.8-1.6,2.4-1.6,3.2c-14.4,7.2-48,34.4-80.8,63.2
		c16,7.2,34.4,10.4,52.8,10.4c4.8,0,9.6,0,14.4-0.8c17.6-21.6,32-40,36.8-50.4c1.6,0,2.4-0.8,3.2-1.6c3.2-3.2,3.2-8,0-12L290,281.6z
		"/>
	<path style="fill:#0DBFBA;" d="M152.4,128c52.8-52.8,138.4-52.8,191.2,0s52.8,138.4,0,191.2"/>
</g>
<circle style="fill:#151918;" cx="248.4" cy="223.2" r="24.8"/>
<path style="fill:#C5C9C9;" d="M291.6,300c1.6,0,2.4-0.8,3.2-1.6c3.2-3.2,3.2-8.8,0-12L282,273.6c-3.2-3.2-8.8-3.2-12,0
	c-0.8,0.8-1.6,2.4-1.6,3.2c-32,16.8-160,132-168,140.8l-12,11.2c-8.8,8.8-8.8,24,0,32.8l17.6,17.6c8.8,8.8,24,8.8,32.8,0l12-12
	C158.8,459.2,274.8,332,291.6,300z"/>
<g>
	<path style="fill:#B6B7B7;" d="M106,480c8.8,8.8,24,8.8,32.8,0l12-12c8-8,124-135.2,140.8-168c1.6,0,2.4-0.8,3.2-1.6
		c3.2-3.2,3.2-8.8,0-12L282,273.6c-3.2-3.2-8.8-3.2-12,0c-0.8,0.8-1.6,2.4-1.6,3.2"/>
	<path style="fill:#B6B7B7;" d="M103.6,33.6c-4,4.8-3.2,12,1.6,16.8c4.8,4.8,12,4.8,16.8,1.6L103.6,33.6z"/>
	<path style="fill:#B6B7B7;" d="M106,31.2l17.6,17.6c4-4.8,3.2-12-1.6-16.8C118.8,27.2,111.6,27.2,106,31.2z"/>
	<path style="fill:#B6B7B7;" d="M370.8,40c0.8,8,6.4,11.2,12.8,11.2s12-3.2,12.8-11.2H370.8z"/>
	<path style="fill:#B6B7B7;" d="M370.8,36.8h25.6c-0.8-8-6.4-11.2-12.8-11.2C376.4,25.6,371.6,28.8,370.8,36.8z"/>
	<path style="fill:#B6B7B7;" d="M393.2,462.4c4-4.8,3.2-12-1.6-16.8c-4.8-4.8-12-4.8-16.8-1.6L393.2,462.4z"/>
	<path style="fill:#B6B7B7;" d="M390.8,464.8l-17.6-17.6c-4,4.8-3.2,12,1.6,16.8C378,468.8,385.2,468.8,390.8,464.8z"/>
</g>
<g>
	<path style="fill:#151918;" d="M126,453.6c-0.8-8-6.4-11.2-12.8-11.2s-12,3.2-12.8,11.2H126z"/>
	<path style="fill:#151918;" d="M126,456h-25.6c0.8,8,6.4,11.2,12.8,11.2C120.4,467.2,125.2,464,126,456z"/>
</g>
<g>
</g>
<g>
</g>
<g>
</g>
<g>
</g>
<g>
</g>
<g>
</g>
<g>
</g>
<g>
</g>
<g>
</g>
<g>
</g>
<g>
</g>
<g>
</g>
<g>
</g>
<g>
</g>
<g>
</g>
</svg>
